<svg width="36" height="36" viewBox="0 0 36 36" fill="none" xmlns="http://www.w3.org/2000/svg">
<path d="M17.7273 26.9091C17.979 26.9091 18.2251 26.8344 18.4344 26.6946C18.6437 26.5547 18.8068 26.356 18.9031 26.1234C18.9994 25.8909 19.0247 25.635 18.9755 25.3881C18.9264 25.1412 18.8052 24.9144 18.6272 24.7364C18.4492 24.5584 18.2225 24.4372 17.9756 24.3881C17.7287 24.339 17.4728 24.3642 17.2402 24.4605C17.0077 24.5568 16.8089 24.72 16.669 24.9293C16.5292 25.1386 16.4545 25.3846 16.4545 25.6364C16.4545 25.9739 16.5886 26.2976 16.8273 26.5363C17.066 26.775 17.3897 26.9091 17.7273 26.9091ZM24.0909 26.9091C24.3426 26.9091 24.5887 26.8344 24.798 26.6946C25.0073 26.5547 25.1704 26.356 25.2668 26.1234C25.3631 25.8909 25.3883 25.635 25.3392 25.3881C25.2901 25.1412 25.1689 24.9144 24.9909 24.7364C24.8129 24.5584 24.5861 24.4372 24.3392 24.3881C24.0923 24.339 23.8364 24.3642 23.6039 24.4605C23.3713 24.5568 23.1725 24.72 23.0327 24.9293C22.8928 25.1386 22.8182 25.3846 22.8182 25.6364C22.8182 25.9739 22.9523 26.2976 23.191 26.5363C23.4296 26.775 23.7534 26.9091 24.0909 26.9091ZM24.0909 21.8182C24.3426 21.8182 24.5887 21.7435 24.798 21.6037C25.0073 21.4638 25.1704 21.2651 25.2668 21.0325C25.3631 20.7999 25.3883 20.544 25.3392 20.2972C25.2901 20.0503 25.1689 19.8235 24.9909 19.6455C24.8129 19.4675 24.5861 19.3463 24.3392 19.2972C24.0923 19.2481 23.8364 19.2733 23.6039 19.3696C23.3713 19.4659 23.1725 19.6291 23.0327 19.8384C22.8928 20.0477 22.8182 20.2937 22.8182 20.5455C22.8182 20.883 22.9523 21.2067 23.191 21.4454C23.4296 21.6841 23.7534 21.8182 24.0909 21.8182ZM17.7273 21.8182C17.979 21.8182 18.2251 21.7435 18.4344 21.6037C18.6437 21.4638 18.8068 21.2651 18.9031 21.0325C18.9994 20.7999 19.0247 20.544 18.9755 20.2972C18.9264 20.0503 18.8052 19.8235 18.6272 19.6455C18.4492 19.4675 18.2225 19.3463 17.9756 19.2972C17.7287 19.2481 17.4728 19.2733 17.2402 19.3696C17.0077 19.4659 16.8089 19.6291 16.669 19.8384C16.5292 20.0477 16.4545 20.2937 16.4545 20.5455C16.4545 20.883 16.5886 21.2067 16.8273 21.4454C17.066 21.6841 17.3897 21.8182 17.7273 21.8182ZM26.6364 6.54545H25.3636V5.27273C25.3636 4.93518 25.2295 4.61146 24.9909 4.37277C24.7522 4.13409 24.4285 4 24.0909 4C23.7534 4 23.4296 4.13409 23.191 4.37277C22.9523 4.61146 22.8182 4.93518 22.8182 5.27273V6.54545H12.6364V5.27273C12.6364 4.93518 12.5023 4.61146 12.2636 4.37277C12.0249 4.13409 11.7012 4 11.3636 4C11.0261 4 10.7024 4.13409 10.4637 4.37277C10.225 4.61146 10.0909 4.93518 10.0909 5.27273V6.54545H8.81818C7.80554 6.54545 6.83437 6.94773 6.11832 7.66377C5.40227 8.37982 5 9.35099 5 10.3636V28.1818C5 29.1945 5.40227 30.1656 6.11832 30.8817C6.83437 31.5977 7.80554 32 8.81818 32H26.6364C27.649 32 28.6202 31.5977 29.3362 30.8817C30.0523 30.1656 30.4545 29.1945 30.4545 28.1818V10.3636C30.4545 9.35099 30.0523 8.37982 29.3362 7.66377C28.6202 6.94773 27.649 6.54545 26.6364 6.54545ZM27.9091 28.1818C27.9091 28.5194 27.775 28.8431 27.5363 29.0818C27.2976 29.3205 26.9739 29.4545 26.6364 29.4545H8.81818C8.48063 29.4545 8.15691 29.3205 7.91823 29.0818C7.67955 28.8431 7.54545 28.5194 7.54545 28.1818V16.7273H27.9091V28.1818ZM27.9091 14.1818H7.54545V10.3636C7.54545 10.0261 7.67955 9.70236 7.91823 9.46368C8.15691 9.225 8.48063 9.09091 8.81818 9.09091H10.0909V10.3636C10.0909 10.7012 10.225 11.0249 10.4637 11.2636C10.7024 11.5023 11.0261 11.6364 11.3636 11.6364C11.7012 11.6364 12.0249 11.5023 12.2636 11.2636C12.5023 11.0249 12.6364 10.7012 12.6364 10.3636V9.09091H22.8182V10.3636C22.8182 10.7012 22.9523 11.0249 23.191 11.2636C23.4296 11.5023 23.7534 11.6364 24.0909 11.6364C24.4285 11.6364 24.7522 11.5023 24.9909 11.2636C25.2295 11.0249 25.3636 10.7012 25.3636 10.3636V9.09091H26.6364C26.9739 9.09091 27.2976 9.225 27.5363 9.46368C27.775 9.70236 27.9091 10.0261 27.9091 10.3636V14.1818ZM11.3636 21.8182C11.6154 21.8182 11.8614 21.7435 12.0707 21.6037C12.28 21.4638 12.4432 21.2651 12.5395 21.0325C12.6358 20.7999 12.661 20.544 12.6119 20.2972C12.5628 20.0503 12.4416 19.8235 12.2636 19.6455C12.0856 19.4675 11.8588 19.3463 11.6119 19.2972C11.365 19.2481 11.1091 19.2733 10.8766 19.3696C10.644 19.4659 10.4453 19.6291 10.3054 19.8384C10.1656 20.0477 10.0909 20.2937 10.0909 20.5455C10.0909 20.883 10.225 21.2067 10.4637 21.4454C10.7024 21.6841 11.0261 21.8182 11.3636 21.8182ZM11.3636 26.9091C11.6154 26.9091 11.8614 26.8344 12.0707 26.6946C12.28 26.5547 12.4432 26.356 12.5395 26.1234C12.6358 25.8909 12.661 25.635 12.6119 25.3881C12.5628 25.1412 12.4416 24.9144 12.2636 24.7364C12.0856 24.5584 11.8588 24.4372 11.6119 24.3881C11.365 24.339 11.1091 24.3642 10.8766 24.4605C10.644 24.5568 10.4453 24.72 10.3054 24.9293C10.1656 25.1386 10.0909 25.3846 10.0909 25.6364C10.0909 25.9739 10.225 26.2976 10.4637 26.5363C10.7024 26.775 11.0261 26.9091 11.3636 26.9091Z" fill="white"/>
</svg>
