<svg width="36" height="36" viewBox="0 0 36 36" fill="none" xmlns="http://www.w3.org/2000/svg">
<path d="M31.048 14.57L28.402 13.688L29.648 11.196C29.7743 10.9352 29.8166 10.6416 29.7689 10.3557C29.7213 10.0698 29.5861 9.80578 29.382 9.6L26.4 6.618C26.1931 6.41092 25.9266 6.27389 25.6378 6.22618C25.349 6.17847 25.0525 6.22247 24.79 6.352L22.298 7.598L21.416 4.952C21.3228 4.67619 21.146 4.43628 20.9102 4.26565C20.6743 4.09502 20.3911 4.00217 20.1 4H15.9C15.6065 3.99925 15.3202 4.09075 15.0815 4.26158C14.8429 4.43242 14.6639 4.67394 14.57 4.952L13.688 7.598L11.196 6.352C10.9352 6.2257 10.6416 6.18345 10.3557 6.23109C10.0698 6.27874 9.80578 6.41393 9.6 6.618L6.618 9.6C6.41092 9.80687 6.27389 10.0734 6.22618 10.3622C6.17847 10.651 6.22247 10.9475 6.352 11.21L7.598 13.702L4.952 14.584C4.67619 14.6772 4.43628 14.854 4.26565 15.0898C4.09502 15.3257 4.00217 15.6089 4 15.9V20.1C3.99925 20.3935 4.09075 20.6798 4.26158 20.9185C4.43242 21.1571 4.67394 21.3361 4.952 21.43L7.598 22.312L6.352 24.804C6.2257 25.0648 6.18345 25.3584 6.23109 25.6443C6.27874 25.9302 6.41393 26.1942 6.618 26.4L9.6 29.382C9.80687 29.5891 10.0734 29.7261 10.3622 29.7738C10.651 29.8215 10.9475 29.7775 11.21 29.648L13.702 28.402L14.584 31.048C14.6779 31.3261 14.8569 31.5676 15.0955 31.7384C15.3342 31.9093 15.6205 32.0008 15.914 32H20.114C20.4075 32.0008 20.6938 31.9093 20.9325 31.7384C21.1711 31.5676 21.3501 31.3261 21.444 31.048L22.326 28.402L24.818 29.648C25.0772 29.7711 25.3679 29.8116 25.6509 29.7641C25.9338 29.7165 26.1953 29.5831 26.4 29.382L29.382 26.4C29.5891 26.1931 29.7261 25.9266 29.7738 25.6378C29.8215 25.349 29.7775 25.0525 29.648 24.79L28.402 22.298L31.048 21.416C31.3238 21.3228 31.5637 21.146 31.7344 20.9102C31.905 20.6743 31.9978 20.3911 32 20.1V15.9C32.0008 15.6065 31.9093 15.3202 31.7384 15.0815C31.5676 14.8429 31.3261 14.6639 31.048 14.57ZM29.2 19.092L27.52 19.652C27.1337 19.7773 26.7792 19.9852 26.4813 20.2611C26.1833 20.5371 25.9489 20.8746 25.7944 21.2502C25.6399 21.6258 25.569 22.0305 25.5865 22.4363C25.6041 22.842 25.7097 23.2391 25.896 23.6L26.694 25.196L25.154 26.736L23.6 25.896C23.241 25.7171 22.8477 25.6175 22.4468 25.6038C22.046 25.5901 21.6468 25.6628 21.2764 25.8168C20.9061 25.9707 20.5731 26.2025 20.3001 26.4964C20.0271 26.7902 19.8204 27.1393 19.694 27.52L19.134 29.2H16.908L16.348 27.52C16.2227 27.1337 16.0148 26.7792 15.7389 26.4813C15.4629 26.1833 15.1254 25.9489 14.7498 25.7944C14.3742 25.6399 13.9695 25.569 13.5637 25.5865C13.158 25.6041 12.7609 25.7097 12.4 25.896L10.804 26.694L9.264 25.154L10.104 23.6C10.2903 23.2391 10.3959 22.842 10.4135 22.4363C10.431 22.0305 10.3601 21.6258 10.2056 21.2502C10.0511 20.8746 9.81669 20.5371 9.51873 20.2611C9.22076 19.9852 8.86632 19.7773 8.48 19.652L6.8 19.092V16.908L8.48 16.348C8.86632 16.2227 9.22076 16.0148 9.51873 15.7389C9.81669 15.4629 10.0511 15.1254 10.2056 14.7498C10.3601 14.3742 10.431 13.9695 10.4135 13.5637C10.3959 13.158 10.2903 12.7609 10.104 12.4L9.306 10.846L10.846 9.306L12.4 10.104C12.7609 10.2903 13.158 10.3959 13.5637 10.4135C13.9695 10.431 14.3742 10.3601 14.7498 10.2056C15.1254 10.0511 15.4629 9.81669 15.7389 9.51873C16.0148 9.22076 16.2227 8.86632 16.348 8.48L16.908 6.8H19.092L19.652 8.48C19.7773 8.86632 19.9852 9.22076 20.2611 9.51873C20.5371 9.81669 20.8746 10.0511 21.2502 10.2056C21.6258 10.3601 22.0305 10.431 22.4363 10.4135C22.842 10.3959 23.2391 10.2903 23.6 10.104L25.196 9.306L26.736 10.846L25.896 12.4C25.7171 12.759 25.6175 13.1523 25.6038 13.5532C25.5901 13.954 25.6628 14.3532 25.8168 14.7236C25.9707 15.0939 26.2025 15.4269 26.4964 15.6999C26.7902 15.9729 27.1393 16.1796 27.52 16.306L29.2 16.866V19.092ZM18 12.4C16.8924 12.4 15.8097 12.7284 14.8888 13.3438C13.9679 13.9591 13.2501 14.8337 12.8263 15.857C12.4024 16.8802 12.2915 18.0062 12.5076 19.0925C12.7237 20.1788 13.257 21.1766 14.0402 21.9598C14.8234 22.743 15.8212 23.2763 16.9075 23.4924C17.9938 23.7085 19.1198 23.5976 20.143 23.1737C21.1663 22.7499 22.0409 22.0321 22.6562 21.1112C23.2716 20.1903 23.6 19.1076 23.6 18C23.6 16.5148 23.01 15.0904 21.9598 14.0402C20.9096 12.99 19.4852 12.4 18 12.4ZM18 20.8C17.4462 20.8 16.9049 20.6358 16.4444 20.3281C15.9839 20.0204 15.6251 19.5831 15.4131 19.0715C15.2012 18.5599 15.1458 17.9969 15.2538 17.4537C15.3618 16.9106 15.6285 16.4117 16.0201 16.0201C16.4117 15.6285 16.9106 15.3618 17.4537 15.2538C17.9969 15.1458 18.5599 15.2012 19.0715 15.4131C19.5831 15.6251 20.0204 15.9839 20.3281 16.4444C20.6358 16.9049 20.8 17.4462 20.8 18C20.8 18.7426 20.505 19.4548 19.9799 19.9799C19.4548 20.505 18.7426 20.8 18 20.8Z" fill="white"/>
</svg>
