<svg width="36" height="36" viewBox="0 0 36 36" fill="none" xmlns="http://www.w3.org/2000/svg">
<path d="M30.6915 25.5606L26.7963 18.8337C27.5933 17.3697 28.0086 15.7285 28.0036 14.0616C28.0036 11.3931 26.9436 8.83389 25.0567 6.94697C23.1698 5.06006 20.6106 4 17.9421 4C15.2736 4 12.7143 5.06006 10.8274 6.94697C8.94052 8.83389 7.88046 11.3931 7.88046 14.0616C7.87551 15.7285 8.29076 17.3697 9.08785 18.8337L5.19258 25.5606C5.06618 25.7795 4.99975 26.0279 5 26.2807C5.00025 26.5335 5.06717 26.7817 5.194 27.0004C5.32083 27.2191 5.5031 27.4004 5.7224 27.5262C5.94171 27.6519 6.19029 27.7176 6.44309 27.7166H10.5683L12.6669 31.2525C12.7376 31.3697 12.8248 31.4762 12.9256 31.5688C13.1921 31.8256 13.5473 31.9698 13.9174 31.9712H14.1186C14.3356 31.9415 14.543 31.8626 14.7248 31.7406C14.9067 31.6185 15.0582 31.4565 15.1679 31.2669L17.9421 26.4948L20.7162 31.31C20.8275 31.4969 20.9797 31.6561 21.1615 31.7757C21.3432 31.8952 21.5498 31.9719 21.7655 32H21.9667C22.3417 32.0022 22.7028 31.8578 22.9729 31.5975C23.0695 31.5102 23.152 31.4084 23.2172 31.2957L25.3158 27.7597H29.441C29.6943 27.7607 29.9433 27.6948 30.1629 27.5686C30.3825 27.4424 30.5649 27.2604 30.6915 27.041C30.8258 26.8175 30.8968 26.5616 30.8968 26.3008C30.8968 26.04 30.8258 25.7841 30.6915 25.5606ZM13.903 27.7597L12.6238 25.6181C12.4978 25.4056 12.3192 25.2291 12.1052 25.1058C11.8912 24.9824 11.649 24.9163 11.402 24.9137H8.91537L10.9708 21.3491C12.3862 22.713 14.1701 23.6324 16.1022 23.9938L13.903 27.7597ZM17.9421 21.2484C16.5206 21.2484 15.1311 20.8269 13.9493 20.0372C12.7674 19.2475 11.8462 18.1251 11.3023 16.8119C10.7583 15.4987 10.616 14.0536 10.8933 12.6595C11.1706 11.2654 11.8551 9.98482 12.8602 8.97972C13.8653 7.97462 15.1459 7.29014 16.54 7.01283C17.9341 6.73553 19.3791 6.87785 20.6923 7.42181C22.0056 7.96576 23.128 8.88692 23.9177 10.0688C24.7074 11.2507 25.1289 12.6402 25.1289 14.0616C25.1289 15.9677 24.3717 17.7957 23.0239 19.1435C21.6761 20.4913 19.8481 21.2484 17.9421 21.2484ZM24.4821 24.9137C24.2351 24.9163 23.9929 24.9824 23.7789 25.1058C23.5649 25.2291 23.3863 25.4056 23.2603 25.6181L21.9811 27.7597L19.7963 23.9507C21.7216 23.5819 23.4989 22.6633 24.9133 21.3059L26.9687 24.8706L24.4821 24.9137Z" fill="white"/>
</svg>
