<svg width="36" height="36" viewBox="0 0 36 36" fill="none" xmlns="http://www.w3.org/2000/svg">
<path d="M28.6666 11.4234L20.6667 4.06823C19.9333 3.38031 18.9839 3 18 3C17.0161 3 16.0668 3.38031 15.3334 4.06823L7.33345 11.4234C6.90994 11.8207 6.57199 12.3079 6.34209 12.8529C6.11218 13.3978 5.99561 13.9878 6.00013 14.5836V26.805C6.00013 27.9176 6.42155 28.9846 7.17169 29.7713C7.92183 30.558 8.93924 31 10.0001 31H26C27.0608 31 28.0783 30.558 28.8284 29.7713C29.5785 28.9846 30 27.9176 30 26.805V14.5697C30.0026 13.9762 29.8851 13.3888 29.6552 12.8465C29.4254 12.3041 29.0884 11.8191 28.6666 11.4234ZM20.6667 28.2033H15.3334V21.2117C15.3334 20.8409 15.4739 20.4852 15.7239 20.2229C15.974 19.9607 16.3131 19.8134 16.6667 19.8134H19.3334C19.687 19.8134 20.0261 19.9607 20.2762 20.2229C20.5262 20.4852 20.6667 20.8409 20.6667 21.2117V28.2033ZM27.3333 26.805C27.3333 27.1759 27.1928 27.5315 26.9428 27.7938C26.6927 28.056 26.3536 28.2033 26 28.2033H23.3333V21.2117C23.3333 20.0991 22.9119 19.0321 22.1618 18.2454C21.4116 17.4587 20.3942 17.0167 19.3334 17.0167H16.6667C15.6059 17.0167 14.5884 17.4587 13.8383 18.2454C13.0882 19.0321 12.6667 20.0991 12.6667 21.2117V28.2033H10.0001C9.64648 28.2033 9.30734 28.056 9.0573 27.7938C8.80725 27.5315 8.66677 27.1759 8.66677 26.805V14.5697C8.66701 14.3711 8.70756 14.1749 8.78573 13.9941C8.86389 13.8133 8.97788 13.652 9.1201 13.5209L17.12 6.1797C17.3634 5.95552 17.6762 5.83189 18 5.83189C18.3239 5.83189 18.6367 5.95552 18.88 6.1797L26.88 13.5209C27.0222 13.652 27.1362 13.8133 27.2143 13.9941C27.2925 14.1749 27.3331 14.3711 27.3333 14.5697V26.805Z" fill="white"/>
</svg>
