<svg id="Layer_1" data-name="Layer 1" xmlns="http://www.w3.org/2000/svg" xmlns:xlink="http://www.w3.org/1999/xlink" viewBox="0 0 1028 1028"><defs><style>.cls-1{fill:#b51612;}.cls-2{fill:url(#linear-gradient);}.cls-3{fill:url(#linear-gradient-2);}.cls-4{fill:url(#linear-gradient-3);}.cls-5{fill:url(#linear-gradient-4);}.cls-6{fill:url(#linear-gradient-5);}.cls-7{fill:url(#linear-gradient-6);}.cls-8{fill:url(#linear-gradient-7);}.cls-9{fill:#fff;}</style><linearGradient id="linear-gradient" x1="599.14" y1="401.31" x2="933.28" y2="308.07" gradientUnits="userSpaceOnUse"><stop offset="0.02" stop-color="#ff9114"/><stop offset="0.22" stop-color="#ff6b12"/><stop offset="0.43" stop-color="#ff4c10"/><stop offset="0.63" stop-color="#ff370f"/><stop offset="0.82" stop-color="#ff290e"/><stop offset="1" stop-color="#ff250e"/></linearGradient><linearGradient id="linear-gradient-2" x1="417.62" y1="731.62" x2="689.44" y2="731.62" gradientUnits="userSpaceOnUse"><stop offset="0" stop-color="#ff9114"/><stop offset="1" stop-color="#ff250e"/></linearGradient><linearGradient id="linear-gradient-3" x1="309.59" y1="639.31" x2="620.07" y2="639.31" xlink:href="#linear-gradient-2"/><linearGradient id="linear-gradient-4" x1="132.56" y1="466.94" x2="575.88" y2="466.94" xlink:href="#linear-gradient-2"/><linearGradient id="linear-gradient-5" x1="276.2" y1="295.21" x2="593.74" y2="295.21" xlink:href="#linear-gradient-2"/><linearGradient id="linear-gradient-6" x1="268.13" y1="785.24" x2="407.33" y2="785.24" xlink:href="#linear-gradient-2"/><linearGradient id="linear-gradient-7" x1="95.64" y1="286" x2="320.48" y2="286" xlink:href="#linear-gradient-2"/></defs><title>pheonix</title><path class="cls-1" d="M841.93,359.16C809.8,439.26,699.05,500,594.75,372.73c0,0-93.41-17.32-211.32-17.32,0,0,18.73,82.67,69.53,129.69s142.8,15.69,142.8,15.69,29.58-7.58,24.51,44.48c0,0-13.82,85.29-107.43,182.53,0,0,95.91-1.69,199.72-93.86C786.6,555.71,812.07,509.81,841.93,359.16Z"/><path class="cls-2" d="M932.36,301.11s-50.23-23-78.37,33-25.73,70.51-78.08,98.95S663.64,452.72,594,372.23c0,0,92.3,9.68,149.19-48.42,0,0-59,9.38-91.09-13.92,0,0,93.81-25.57,135.5-44.49S908.48,249.16,932.36,301.11Z"/><path class="cls-3" d="M689.44,653.13s-67.86,74.06-271.82,157c0,0,56.69-34.5,95.22-82.31C512.84,727.8,596.69,718.65,689.44,653.13Z"/><path class="cls-4" d="M620.07,546.53S612.9,623.6,512.84,727.8c0,0-105.81,21.18-203.25-30.57,0,0,110.8,1.11,186-36.31S600.63,605.91,620.07,546.53Z"/><path class="cls-5" d="M575.88,506s-47.51,20.68-73.33,50.94-72.22,23.81-100.06,0c-11.92-10.18-74.2-63.21-110.56-92.19-60.59-37.47-81.1-47.41-159.37-44.19,0,0,121.85-67.78,251-63.75,0,0,41.36,100.47,66.88,124.78S511,517,575.88,506Z"/><path class="cls-6" d="M593.74,372.53S516.31,285,460.2,258s-118.58-46-184-38.35c0,0,30.8,7.17,63,53.21s28.55,46.64,44.31,83.57C383.52,356.39,394.82,348.72,593.74,372.53Z"/><path class="cls-7" d="M407.33,770.92s-19.07,4.49-51.9-6.76-70.36,21.44-87.3,39.29c0,0,41.38,11,82.12.95S387.16,788.17,407.33,770.92Z"/><path class="cls-8" d="M95.64,249.67s162.5-28.14,224.84,66.27c0,0-33.29-8.07-80.19,6.46S149.5,309.89,95.64,249.67Z"/><path class="cls-9" d="M792.4,289.61s32.53-15.88,54.78-4.23c0,0-9.31.95-20,9.89S796.64,292.19,792.4,289.61Z"/></svg>